<svg width="24" height="24" viewBox="0 0 24 24" fill="none" xmlns="http://www.w3.org/2000/svg">
<path d="M16.617 14.4959C17.0075 14.1054 17.6407 14.1054 18.0312 14.4959C18.4217 14.8864 18.4217 15.5196 18.0312 15.9101L14.8492 19.0921C12.1155 21.8258 7.68334 21.8258 4.94967 19.0921C2.216 16.3584 2.216 11.9263 4.94967 9.19261L10.6066 3.53575C12.5592 1.58313 15.725 1.58313 17.6776 3.53575C19.6302 5.48838 19.6302 8.6542 17.6776 10.6068L12.0208 16.2637C10.8492 17.4352 8.94967 17.4352 7.7781 16.2637C6.60653 15.0921 6.60653 13.1926 7.7781 12.021L12.3743 7.42484C12.7648 7.03432 13.398 7.03432 13.7885 7.42484C14.1791 7.81537 14.1791 8.44853 13.7885 8.83905L9.19231 13.4352C8.80179 13.8258 8.80179 14.4589 9.19231 14.8494C9.58284 15.24 10.216 15.24 10.6066 14.8494L16.2634 9.19261C17.435 8.02104 17.435 6.12154 16.2634 4.94997C15.0918 3.77839 13.1923 3.77839 12.0208 4.94997L6.36389 10.6068C4.41126 12.5594 4.41126 15.7252 6.36389 17.6779C8.31651 19.6305 11.4824 19.6305 13.435 17.6779L16.617 14.4959Z" fill="#100C34"/>
</svg>
